# File created by Blade
# Date/Time:  Mon Nov 18 18:33:23 2013
# Frame Rate: 100.000 fps
#------------------------------------------------------
:FULLY-SPECIFIED
:DEGREES
141
root 53.698912 -2.039447 51.011193 -2.315688 1.771089 -122.115662
Spine 11.591717 -1.673453 -0.595877
Spine1 3.008221 0.960758 -1.728292
Spine2 0.688162 -2.373565 -2.129371
NeckDummy 0.003879 -0.041304 -0.020504 -1.389155 1.788086 -0.760218
Neck 17.018278 0.658272 25.791562
Head -0.256188 0.339324 0.241895 -35.145863 -3.582950 -0.407643
LeftShoulderDummy -0.067987 -0.034011 0.022771 -1.364201 1.666919 -0.542181
LeftShoulder 7.782947 -4.058403 14.123918
LeftArm 18.134192 48.266856 27.258761
LeftForeArm 88.489254
LeftForeArmRoll -34.670804
LeftHand -9.192986 4.678139 -4.158404
LeftHandThumb1 16.360942 12.449634
LeftHandIndex1 14.922599 43.575355
LeftHandPinky1 14.146574 48.519245
RightShoulderDummy -0.046445 -0.008118 0.069920 -1.409975 -1.781671 0.740359
RightShoulder 5.292067 5.360905 17.604117
RightArm -40.613659 70.142489 -5.107692
RightForeArm 112.974357
RightForeArmRoll 4.719178
RightHand -17.612813 -16.841671 11.588776
RightHandThumb1 -0.560064 13.350223
RightHandIndex1 13.734218 60.383794
RightHandPinky1 18.571181 68.573393
LeftUpLeg 4.700803 19.843867 -29.288313
LeftLeg 46.144235
LeftFoot 0.562934 -1.048709 -0.667743 -13.721910 9.055588 -7.875206
LeftToeBase -1.641708
RightUpLeg 15.482931 12.069665 -21.229966
RightLeg 56.828885
RightFoot -0.403677 0.452490 0.216943 0.087876 6.373255 -29.493491
RightToeBase -1.087076
142
root 53.679823 -2.047050 51.032517 -2.289473 1.780106 -122.150632
Spine 11.577683 -1.695818 -0.589899
Spine1 3.007564 0.950339 -1.731362
Spine2 0.677422 -2.330983 -2.186563
NeckDummy 0.004053 -0.043102 -0.020095 -1.364007 1.826696 -0.752565
Neck 16.994124 0.628440 25.827768
Head -0.254989 0.341555 0.241557 -35.137201 -3.596841 -0.390286
LeftShoulderDummy -0.067462 -0.035729 0.021540 -1.338822 1.704892 -0.534274
LeftShoulder 7.710012 -4.036494 14.098905
LeftArm 18.199745 48.349661 27.195501
LeftForeArm 88.599498
LeftForeArmRoll -34.682205
LeftHand -9.190704 4.760100 -4.269831
LeftHandThumb1 16.379683 12.492962
LeftHandIndex1 14.927324 43.590755
LeftHandPinky1 14.166324 48.515019
RightShoulderDummy -0.045490 -0.010291 0.070262 -1.384285 -1.821188 0.734461
RightShoulder 5.267633 5.399595 17.549599
RightArm -40.377988 70.155086 -4.879697
RightForeArm 113.040308
RightForeArmRoll 4.702229
RightHand -17.645073 -16.550076 11.434182
RightHandThumb1 -0.879030 13.328424
RightHandIndex1 13.977316 59.746534
RightHandPinky1 18.402694 67.690516
LeftUpLeg 4.709103 19.824323 -29.395776
LeftLeg 46.320481
LeftFoot 0.562566 -1.052919 -0.667687 -13.708942 9.058578 -7.887481
LeftToeBase -1.669930
RightUpLeg 15.455009 12.157006 -21.296047
RightLeg 56.897734
RightFoot -0.398035 0.455102 0.219375 0.032174 6.325943 -29.477626
RightToeBase -1.054274
143
root 53.659922 -2.055355 51.054903 -2.295737 1.793387 -122.139761
Spine 11.621993 -1.737344 -0.567624
Spine1 3.011358 0.929846 -1.691878
Spine2 0.664561 -2.253553 -2.213824
NeckDummy 0.004126 -0.043157 -0.019778 -1.381585 1.839357 -0.739397
Neck 16.908034 0.629619 25.739895
Head -0.257997 0.340288 0.239796 -35.077579 -3.624678 -0.418358
LeftShoulderDummy -0.066698 -0.035508 0.022554 -1.355700 1.717127 -0.521507
LeftShoulder 7.771081 -4.037704 14.074360
LeftArm 18.395556 48.372229 27.334861
LeftForeArm 88.715953
LeftForeArmRoll -34.917323
LeftHand -9.151023 4.800015 -4.254817
LeftHandThumb1 16.220687 12.482942
LeftHandIndex1 14.920214 43.490095
LeftHandPinky1 14.130259 48.628525
RightShoulderDummy -0.045167 -0.010581 0.071318 -1.402333 -1.832845 0.720630
RightShoulder 5.316515 5.415665 17.653758
RightArm -39.862283 70.131904 -4.326264
RightForeArm 113.124731
RightForeArmRoll 4.744870
RightHand -17.673682 -16.517589 11.487935
RightHandThumb1 -0.995309 13.390197
RightHandIndex1 13.722559 59.637880
RightHandPinky1 18.565599 68.267761
LeftUpLeg 4.625697 19.762136 -29.489036
LeftLeg 46.503965
LeftFoot 0.555155 -1.055410 -0.666414 -13.699714 9.108916 -7.908442
LeftToeBase -1.673542
RightUpLeg 15.462750 12.247281 -21.313484
RightLeg 56.954326
RightFoot -0.399121 0.457239 0.221841 0.000524 6.287681 -29.483898
RightToeBase -1.031881
144
root 53.643658 -2.064423 51.073473 -2.266336 1.738433 -122.166385
Spine 11.564159 -1.676013 -0.602149
Spine1 3.017274 0.951772 -1.748778
Spine2 0.726936 -2.320773 -2.112710
NeckDummy 0.003888 -0.044020 -0.021677 -1.368878 1.770809 -0.749240
Neck 16.844424 0.659660 25.792549
Head -0.257198 0.342240 0.241069 -35.152662 -3.597732 -0.404422
LeftShoulderDummy -0.067656 -0.036566 0.021349 -1.343643 1.648618 -0.530466
LeftShoulder 7.647827 -3.966735 14.066151
LeftArm 18.445965 48.429063 27.263029
LeftForeArm 88.848660
LeftForeArmRoll -34.766236
LeftHand -9.236576 5.057164 -4.407719
LeftHandThumb1 15.935215 12.431476
LeftHandIndex1 14.869950 43.538056
LeftHandPinky1 14.058688 48.499999
RightShoulderDummy -0.045542 -0.011295 0.067692 -1.389453 -1.765292 0.731710
RightShoulder 5.310276 5.401111 17.576787
RightArm -39.450940 70.218906 -3.916086
RightForeArm 113.186531
RightForeArmRoll 4.741794
RightHand -17.628660 -16.625442 11.475521
RightHandThumb1 -0.958751 13.372669
RightHandIndex1 13.693189 60.082221
RightHandPinky1 18.221759 67.949594
LeftUpLeg 4.622415 19.806136 -29.622026
LeftLeg 46.670320
LeftFoot 0.582930 -1.054746 -0.671819 -14.256804 9.232745 -8.077642
LeftToeBase -0.965953
RightUpLeg 15.427723 12.222998 -21.370826
RightLeg 57.005285
RightFoot -0.400513 0.453944 0.220567 -0.022107 6.314714 -29.454419
RightToeBase -1.127112
145
root 53.624425 -2.073866 51.093067 -2.265204 1.694393 -122.175008
Spine 11.567117 -1.652850 -0.592852
Spine1 3.010744 0.969372 -1.731298
Spine2 0.752965 -2.296805 -2.120557
NeckDummy 0.003874 -0.043222 -0.022643 -1.388111 1.774916 -0.742373
Neck 16.817335 0.662928 25.741176
Head -0.258773 0.339644 0.242281 -35.150495 -3.618503 -0.421886
LeftShoulderDummy -0.067617 -0.035428 0.021141 -1.362671 1.652470 -0.522448
LeftShoulder 7.751702 -3.998867 14.047991
LeftArm 18.703042 48.350029 27.423183
LeftForeArm 88.935082
LeftForeArmRoll -34.764469
LeftHand -9.264790 5.235681 -4.414531
LeftHandThumb1 15.973061 12.556585
LeftHandIndex1 14.853771 43.591892
LeftHandPinky1 14.083024 48.579776
RightShoulderDummy -0.045212 -0.010411 0.067310 -1.409370 -1.768631 0.725131
RightShoulder 5.249893 5.419831 17.593681
RightArm -39.329842 70.245936 -3.761453
RightForeArm 113.256045
RightForeArmRoll 4.609285
RightHand -17.628146 -16.889295 11.398005
RightHandThumb1 -1.058475 13.573729
RightHandIndex1 13.852606 59.958251
RightHandPinky1 18.944287 68.801159
LeftUpLeg 4.636651 19.838038 -29.716815
LeftLeg 46.820418
LeftFoot 0.559854 -1.057787 -0.675734 -13.566122 9.126918 -7.992275
LeftToeBase -1.603505
RightUpLeg 15.412452 12.226060 -21.374686
RightLeg 57.033112
RightFoot -0.406067 0.456435 0.220816 -0.086969 6.329364 -29.538841
RightToeBase -1.019651
146
root 53.607489 -2.082174 51.111099 -2.270919 1.661108 -122.229665
Spine 11.569660 -1.630079 -0.590432
Spine1 3.010250 0.983366 -1.723129
Spine2 0.776521 -2.294753 -2.143917
NeckDummy 0.004111 -0.047450 -0.023359 -1.387216 1.792032 -0.744802
Neck 16.803479 0.642522 25.736374
Head -0.256766 0.343478 0.243867 -35.225237 -3.594777 -0.392302
LeftShoulderDummy -0.067608 -0.039811 0.019925 -1.362054 1.669589 -0.524354
LeftShoulder 7.699683 -3.965958 14.072121
LeftArm 18.681720 48.342949 27.407617
LeftForeArm 89.024685
LeftForeArmRoll -34.676392
LeftHand -9.273439 5.129011 -4.423224
LeftHandThumb1 16.100519 12.564925
LeftHandIndex1 14.754744 43.783845
LeftHandPinky1 13.927284 48.709376
RightShoulderDummy -0.044784 -0.014687 0.066881 -1.408328 -1.786016 0.728466
RightShoulder 5.254647 5.483746 17.544072
RightArm -38.931037 70.389278 -3.401277
RightForeArm 113.322770
RightForeArmRoll 4.623576
RightHand -17.657093 -16.630538 11.288709
RightHandThumb1 -1.353123 13.582310
RightHandIndex1 14.015353 59.498669
RightHandPinky1 18.686370 67.867384
LeftUpLeg 4.746251 19.890468 -29.765393
LeftLeg 46.950153
LeftFoot 0.568019 -1.057963 -0.679879 -13.501083 9.081429 -8.068765
LeftToeBase -1.571872
RightUpLeg 15.315053 12.180247 -21.390789
RightLeg 57.066667
RightFoot -0.407765 0.453257 0.215920 -0.071804 6.373314 -29.534019
RightToeBase -1.137301
147
root 53.589775 -2.089956 51.128914 -2.287805 1.634246 -122.264374
Spine 11.593979 -1.622357 -0.584687
Spine1 3.050123 0.989074 -1.699597
Spine2 0.749209 -2.282566 -2.091018
NeckDummy 0.003691 -0.052848 -0.022110 -1.344148 1.753572 -0.732469
Neck 16.691134 0.612755 25.706934
Head -0.259226 0.342566 0.242215 -35.158464 -3.627618 -0.429806
LeftShoulderDummy -0.067962 -0.045184 0.020227 -1.319167 1.630460 -0.510837
LeftShoulder 7.641653 -3.924767 14.058979
LeftArm 18.757530 48.356597 27.457890
LeftForeArm 89.117689
LeftForeArmRoll -34.789048
LeftHand -9.269518 5.283789 -4.451919
LeftHandThumb1 15.974001 12.577173
LeftHandIndex1 14.869236 43.721674
LeftHandPinky1 14.041198 48.605056
RightShoulderDummy -0.045110 -0.020370 0.065316 -1.366158 -1.746246 0.715396
RightShoulder 5.225536 5.526917 17.569018
RightArm -38.455936 70.527060 -2.940659
RightForeArm 113.415154
RightForeArmRoll 4.878957
RightHand -17.640612 -16.944024 11.505233
RightHandThumb1 -0.798938 13.633336
RightHandIndex1 13.763353 60.570312
RightHandPinky1 18.685302 69.098912
LeftUpLeg 4.811902 19.919257 -29.777905
LeftLeg 47.048651
LeftFoot 0.591793 -1.050665 -0.680909 -14.020237 9.199624 -8.317031
LeftToeBase -0.821816
RightUpLeg 15.260004 12.180752 -21.372918
RightLeg 57.067308
RightFoot -0.405080 0.454725 0.218789 -0.120535 6.374552 -29.585860
RightToeBase -1.105290
